<?xml version="1.0" encoding="UTF-8" standalone="no"?>
<svg
   version="1.1"
   width="478.619"
   height="184.762"
   viewBox="0 0 478.619 184.762"
   overflow="visible"
   enable-background="new 0 0 478.619 184.762"
   xml:space="preserve"
   id="svg8"
   sodipodi:docname="judo_belt_bicolor.svg"
   inkscape:version="1.4 (86a8ad7, 2024-10-11)"
   inkscape:export-filename="tex\judobelt-blue-purple.pdf"
   inkscape:export-xdpi="96"
   inkscape:export-ydpi="96"
   xmlns:inkscape="http://www.inkscape.org/namespaces/inkscape"
   xmlns:sodipodi="http://sodipodi.sourceforge.net/DTD/sodipodi-0.dtd"
   xmlns="http://www.w3.org/2000/svg"
   xmlns:svg="http://www.w3.org/2000/svg"><defs
   id="defs8" /><sodipodi:namedview
   id="namedview8"
   pagecolor="#ffffff"
   bordercolor="#000000"
   borderopacity="0.25"
   inkscape:showpageshadow="2"
   inkscape:pageopacity="0.0"
   inkscape:pagecheckerboard="0"
   inkscape:deskcolor="#d1d1d1"
   inkscape:zoom="1.3810568"
   inkscape:cx="113.68106"
   inkscape:cy="119.83577"
   inkscape:window-width="1920"
   inkscape:window-height="991"
   inkscape:window-x="-9"
   inkscape:window-y="-9"
   inkscape:window-maximized="1"
   inkscape:current-layer="svg8" />
			<g
   id="g8"
   style="fill:#0000ff">
				<path
   fill="#ffd91d"
   stroke="#1a1a1a"
   stroke-width="3.1765"
   d="m 189.00269,46.699334 c 0,0 -1.10535,4.362967 0.15737,6.497755 1.26345,2.134788 18.62965,1.577963 18.62965,1.577963 l -8.44478,-9.004346 z"
   id="path1"
   style="display:inline;fill:#0000ff" />
				<path
   fill="#FFD91D"
   stroke="#1A1A1A"
   stroke-width="4"
   d="M9.831,23.198c0,0,119.181,32.087,233.779,32.087      c114.598,0,214.679-51.187,218.5-53.479c3.819-2.292,12.987,38.963,0.765,48.131c-12.225,9.168-80.983,48.896-216.208,48.896      c-135.226,0-233.015-21.392-239.892-29.032C-0.101,62.161-0.101,31.602,9.831,23.198z"
   id="path2"
   style="fill:#0000ff" />
				<path
   fill="#ffd91d"
   stroke="#1a1a1a"
   stroke-width="3.91872"
   d="m 250.97061,125.31 c 0,0 -21.38856,-5.9976 -27.28885,-20.99162 -5.89933,-14.99302 56.78933,-29.237328 56.78933,-29.237328 l -5.90029,30.737718 z"
   id="path3"
   style="fill:#0000ff" />
				<path
   fill="#FFD91D"
   stroke="#1A1A1A"
   stroke-width="4"
   d="M195.479,102.652c0,0,30.56,21.392,35.143,19.1      c4.584-2.292,58.827-36.671,58.827-36.671L243.61,51.465l-50.423,38.2L195.479,102.652z"
   id="path4"
   style="fill:#0000ff" />
				<path
   fill="#FFD91D"
   stroke="#1A1A1A"
   stroke-width="4"
   d="M22.818,152.312      c0,0,125.293-76.398,200.928-106.958c75.635-30.56,30.56,29.031,30.56,29.031s-78.69,38.199-110.778,57.299      s-81.746,50.424-87.858,51.188C49.558,183.635,22.818,152.312,22.818,152.312z"
   id="path5"
   style="fill:#0000ff" />
				<path
   fill="#FFD91D"
   stroke="#1A1A1A"
   stroke-width="4"
   d="M255.967,27.303c0,0-5.29-1.851-14.146,8.46      c-8.857,10.312,15.07,8.197,15.07,8.197L255.967,27.303z"
   id="path6"
   style="fill:#0000ff" />
				<path
   fill="#ffd91d"
   stroke="#1a1a1a"
   stroke-width="4"
   d="m 231.49441,28.54969 c 0,0 94.98719,49.656507 127.92699,60.35197 32.9388,10.695464 114.13623,46.60066 117.2014,55.7682 3.06517,9.16754 -27.5765,30.55747 -27.5765,30.55747 0,0 -23.7483,-21.38993 -54.38797,-34.37728 C 364.01665,127.8637 311.16176,106.47278 282.05217,92.721469 252.94358,78.971159 192.42627,45.356846 192.42627,45.356846 Z"
   id="path7"
   style="fill:#0000ff" />
				<path
   fill="#FFD91D"
   stroke="#1A1A1A"
   stroke-width="4"
   d="M255.834,27.782c0,0-2.292,92.442-4.584,97.026      c-2.293,4.584,42.783-12.987,43.546-18.335c0.765-5.349,6.877-50.423,2.293-55.007S260.417,25.49,255.834,27.782z"
   id="path8"
   style="fill:#0000ff" />
			</g>
<g
   id="g1"
   style="fill:#800080"
   inkscape:export-filename="g1.pdf"
   inkscape:export-xdpi="96"
   inkscape:export-ydpi="96"><path
     style="fill:#800080;stroke:#000000;stroke-width:2"
     d="m 317.87252,70.960152 c 0,0 53.13229,-15.713403 79.14572,-25.190319 23.65337,-8.617121 69.8344,-28.753878 69.8344,-28.753878 l 1.44816,15.567788 c 0,0 -42.08791,18.193067 -63.66669,25.88722 -22.19999,7.915651 -67.57339,20.816147 -67.57339,20.816147 z"
     id="path9"
     sodipodi:nodetypes="csccscc" /><path
     style="fill:#800080;stroke:#000000;stroke-width:2"
     d="m 298.8225,74.73164 c 0,0 56.55914,22.818709 82.04205,33.64144 35.88242,15.23947 89.92771,46.91281 89.92771,46.91281 l -10.3182,9.95615 c 0,0 -66.16368,-37.74236 -85.93225,-45.79701 -21.82675,-8.89326 -76.62443,-30.050704 -76.62443,-30.050704 z"
     id="path9-0"
     sodipodi:nodetypes="csccscc" /><path
     style="fill:#800080;stroke:#000000;stroke-width:2"
     d="m 229.32691,66.675579 c 0,0 -54.24473,32.393127 -78.34076,44.905781 -34.59783,17.96607 -107.011646,61.76305 -107.011646,61.76305 L 33.679479,162.97544 c 0,0 94.733191,-54.2866 113.901351,-63.681017 20.9191,-10.252568 69.41587,-39.493551 69.41587,-39.493551 z"
     id="path9-0-7"
     sodipodi:nodetypes="csccscc" /><path
     style="fill:#800080;stroke:#000000;stroke-width:2"
     d="m 3.7744929,39.759179 c 0,0 46.3445181,10.847995 73.3379801,17.001306 39.338447,8.967419 90.183707,13.248539 90.183707,13.248539 l -22.7343,11.492162 c 0,0 -63.34428,-9.481324 -84.01223,-14.820761 C 36.034878,60.347186 3.253376,54.677871 3.253376,54.677871 Z"
     id="path9-0-3"
     sodipodi:nodetypes="csccscc" /><path
     style="fill:#800080;stroke:#000000;stroke-width:2"
     d="m 283.62487,43.01946 c 0,0 1.91606,3.79836 2.61172,31.475538 0.67678,26.925902 -7.54807,41.064632 -7.54807,41.064632 l -13.16867,5.67242 c 0,0 7.71831,-24.276194 7.99601,-40.420361 0.40536,-23.565496 -0.62079,-44.305487 -0.62079,-44.305487 z"
     id="path9-0-8"
     sodipodi:nodetypes="csccscc" /><path
     style="fill:#800080;stroke:#000000;stroke-width:2"
     d="m 221.36018,33.660334 c 14.19704,11.139219 17.87617,10.359848 32.16178,20.065907 l -0.22902,13.759166 c -9.27423,-8.324134 -34.58381,-19.238779 -45.2681,-27.961609 z"
     id="path9-0-8-3"
     sodipodi:nodetypes="ccccc" /><path
     style="display:inline;fill:#800080;stroke:#000000;stroke-width:2"
     d="m 252.69216,99.362826 c -15.966,8.409804 -22.73084,11.724384 -33.44237,16.998904 l -11.56075,-6.37139 c 11.3859,-5.06594 32.77141,-19.004478 45.09712,-25.194692 z"
     id="path9-0-8-3-2"
     sodipodi:nodetypes="ccccc" /></g></svg>
