<?xml version="1.0" encoding="UTF-8" standalone="no"?>
<!DOCTYPE svg PUBLIC "-//W3C//DTD SVG 1.1//EN" "http://www.w3.org/Graphics/SVG/1.1/DTD/svg11.dtd">
<svg xmlns="http://www.w3.org/2000/svg" version="1.1" viewBox="0.00 0.00 2000.00 772.00">
<g stroke-width="2.00" fill="none" stroke-linecap="butt">
<path stroke="#8d7a1c" vector-effect="non-scaling-stroke" d="
  M 1854.45 52.43
  Q 1634.78 148.13 1400.25 197.54
  Q 1329.72 212.41 1253.50 222.72
  Q 1253.00 222.79 1253.09 223.29
  Q 1255.79 238.28 1255.73 253.53
  A 0.38 0.37 14.8 0 0 1255.94 253.88
  Q 1343.46 296.89 1432.62 335.27
  C 1453.57 344.29 1474.80 352.43 1496.30 360.04
  Q 1497.84 360.59 1498.49 360.46
  C 1590.97 342.12 1682.46 316.54 1770.25 282.03
  Q 1824.99 260.50 1876.87 232.82
  Q 1895.47 222.89 1913.26 211.56
  Q 1925.86 203.54 1929.67 200.16
  C 1944.19 187.31 1948.83 158.93 1949.64 139.75
  C 1950.73 113.75 1948.37 87.93 1943.57 62.40
  Q 1939.81 42.39 1932.80 23.22
  Q 1932.10 21.31 1929.85 17.51
  Q 1929.58 17.07 1929.12 17.30
  Q 1892.27 35.95 1854.45 52.43"
/>
<path stroke="#8d7a1c" vector-effect="non-scaling-stroke" d="
  M 815.85 231.95
  A 0.03 0.03 0.0 0 0 815.84 231.89
  Q 717.09 224.94 618.77 212.92
  Q 352.32 180.36 91.25 118.00
  Q 73.52 113.77 43.88 106.16
  Q 43.37 106.03 43.03 106.42
  Q 35.00 115.53 30.36 126.83
  C 17.61 157.86 14.77 194.34 17.11 226.51
  Q 18.65 247.61 25.16 267.70
  C 27.10 273.68 31.14 283.65 36.12 287.17
  C 40.89 290.54 48.48 293.77 54.90 296.10
  Q 84.70 306.91 115.50 314.52
  Q 176.51 329.60 238.41 340.55
  Q 380.56 365.67 524.57 379.47
  A 2.73 2.63 32.3 0 0 526.08 379.16
  C 621.22 327.55 717.40 277.86 815.85 231.95"
/>
<path stroke="#8d7a1c" vector-effect="non-scaling-stroke" d="
  M 1029.98 141.07
  L 1058.25 155.55
  Q 1058.75 155.80 1058.76 155.25
  L 1059.66 122.73
  A 0.54 0.54 0.0 0 0 1058.95 122.20
  Q 1042.28 127.90 1029.87 140.41
  Q 1029.47 140.81 1029.98 141.07"
/>
<path stroke="#8d7a1c" vector-effect="non-scaling-stroke" d="
  M 1076.78 124.31
  A 0.42 0.42 0.0 0 0 1076.24 124.70
  Q 1072.66 273.82 1065.89 423.00
  Q 1063.82 468.69 1059.39 514.26
  Q 1059.34 514.79 1059.86 514.68
  Q 1069.56 512.58 1079.02 509.54
  Q 1135.89 491.24 1189.23 464.43
  C 1197.90 460.07 1205.76 455.48 1213.63 450.40
  Q 1218.47 447.28 1222.34 442.99
  Q 1222.68 442.62 1222.75 442.12
  C 1230.40 386.42 1236.89 330.21 1238.86 274.00
  C 1239.41 258.49 1239.63 242.29 1236.76 227.00
  Q 1235.80 221.85 1234.23 220.28
  Q 1229.27 215.33 1214.41 204.60
  Q 1171.02 173.26 1124.54 146.72
  C 1109.51 138.13 1093.46 129.24 1076.78 124.31"
/>
<path stroke="#8d7a1c" vector-effect="non-scaling-stroke" d="
  M 968.43 128.51
  L 826.21 189.85
  Q 825.54 190.14 826.18 190.50
  Q 939.08 253.03 1053.17 313.38
  Q 1053.83 313.72 1053.85 312.98
  L 1058.31 174.92
  Q 1058.33 174.39 1057.85 174.14
  L 969.27 128.54
  A 0.98 0.94 46.0 0 0 968.43 128.51"
/>
<path stroke="#8d7a1c" vector-effect="non-scaling-stroke" d="
  M 838.78 216.54
  L 809.02 200.08
  Q 808.67 199.89 808.59 200.28
  Q 807.32 207.02 808.00 213.83
  Q 808.07 214.54 808.77 214.59
  L 838.74 216.66
  Q 839.04 216.69 838.78 216.54"
/>
<path stroke="#8d7a1c" vector-effect="non-scaling-stroke" d="
  M 860.03 230.10
  C 786.28 263.28 713.53 299.15 641.83 336.54
  C 460.89 430.90 283.21 532.12 108.42 637.37
  A 0.32 0.32 0.0 0 0 108.35 637.85
  C 135.79 669.34 164.28 700.44 194.99 728.76
  C 200.15 733.53 226.07 756.72 232.42 754.59
  Q 239.67 752.15 246.51 748.71
  Q 266.15 738.87 285.23 727.97
  Q 328.48 703.29 371.11 677.57
  Q 466.75 619.88 562.20 561.88
  C 628.23 521.77 699.41 483.55 764.80 449.83
  Q 894.92 382.75 1026.32 318.46
  A 0.24 0.23 45.7 0 0 1026.32 318.04
  Q 944.50 274.56 863.19 229.95
  C 861.85 229.21 861.29 229.53 860.03 230.10"
/>
<path stroke="#8d7a1c" vector-effect="non-scaling-stroke" d="
  M 1421.56 348.67
  Q 1338.02 312.58 1256.23 272.60
  Q 1255.72 272.35 1255.69 272.92
  C 1253.96 318.96 1249.85 359.03 1244.22 406.65
  A 0.73 0.72 -75.4 0 0 1244.65 407.40
  Q 1318.75 440.12 1377.24 464.79
  Q 1471.84 504.70 1639.24 574.43
  Q 1687.47 594.52 1731.41 619.60
  Q 1807.49 663.02 1875.34 720.17
  Q 1875.71 720.48 1876.11 720.20
  Q 1907.42 697.66 1936.07 671.83
  Q 1952.92 656.63 1967.34 639.11
  C 1973.78 631.28 1980.47 621.91 1982.36 611.73
  C 1983.54 605.36 1978.96 601.49 1973.86 597.40
  Q 1964.01 589.49 1953.33 582.73
  Q 1921.13 562.38 1887.25 544.97
  Q 1858.56 530.23 1829.46 516.31
  Q 1725.73 466.69 1619.08 423.68
  Q 1552.46 396.81 1496.96 378.02
  C 1471.41 369.37 1446.32 359.37 1421.56 348.67"
/>
<path stroke="#8d7a1c" vector-effect="non-scaling-stroke" d="
  M 1044.59 328.09
  C 974.95 362.04 905.64 396.66 836.60 431.72
  A 0.23 0.23 0.0 0 0 836.58 432.11
  C 868.57 453.85 901.59 475.23 936.29 492.38
  C 943.03 495.71 952.53 500.36 960.10 500.34
  A 1.01 0.94 27.5 0 0 960.61 500.20
  L 1047.59 446.63
  Q 1048.08 446.33 1048.10 445.76
  L 1053.14 332.69
  Q 1053.16 332.22 1052.75 332.00
  L 1045.43 328.11
  Q 1045.01 327.89 1044.59 328.09"
/>
<path stroke="#8d7a1c" vector-effect="non-scaling-stroke" d="
  M 1000.88 495.68
  C 1013.69 503.21 1027.28 509.48 1041.03 514.64
  Q 1042.21 515.09 1042.37 513.83
  Q 1045.27 490.67 1046.54 467.36
  Q 1046.57 466.80 1046.09 467.09
  L 1000.88 495.16
  Q 1000.44 495.43 1000.88 495.68"
/>
</g>
<path fill="#1a1a1a" d="
  M 1925.80 0.00
  L 1936.04 0.00
  C 1943.20 4.51 1946.89 13.20 1949.65 21.03
  Q 1957.62 43.63 1961.35 67.30
  C 1967.30 105.11 1969.85 141.55 1960.67 177.24
  C 1957.18 190.82 1949.63 206.05 1938.20 214.70
  C 1930.69 220.38 1921.47 226.39 1912.62 231.69
  C 1854.75 266.30 1792.03 293.15 1728.46 315.34
  Q 1630.70 349.47 1529.45 371.07
  Q 1528.81 371.21 1529.42 371.43
  C 1635.22 409.70 1739.15 454.47 1841.66 503.64
  C 1883.35 523.63 1929.98 546.93 1969.99 573.61
  C 1977.69 578.75 1984.21 583.92 1990.54 589.96
  C 2018.34 616.51 1970.99 662.05 1953.06 678.71
  Q 1916.36 712.83 1875.14 741.43
  Q 1874.74 741.70 1874.38 741.39
  Q 1799.16 676.05 1711.88 627.94
  Q 1677.14 608.78 1642.41 594.09
  C 1531.81 547.30 1375.13 482.94 1242.47 424.77
  Q 1241.98 424.55 1241.91 425.08
  Q 1240.62 434.39 1239.38 443.72
  C 1238.13 453.15 1230.40 459.33 1222.65 464.41
  Q 1210.09 472.64 1196.68 479.37
  Q 1144.46 505.59 1088.97 523.90
  Q 1076.10 528.15 1062.84 531.09
  C 1059.12 531.92 1057.31 533.72 1054.55 536.08
  Q 1054.14 536.44 1053.62 536.29
  Q 1017.06 525.73 984.83 505.55
  Q 984.38 505.26 983.91 505.54
  Q 977.45 509.33 970.95 513.12
  Q 965.81 516.12 962.45 516.80
  Q 957.49 517.79 952.95 516.57
  C 937.44 512.40 923.51 505.08 907.99 496.44
  C 877.94 479.71 847.14 459.47 819.84 440.98
  Q 819.41 440.69 818.92 440.84
  C 817.57 441.25 816.13 442.35 815.30 442.76
  Q 720.61 490.60 628.03 542.38
  Q 619.64 547.07 610.73 552.41
  C 492.71 623.10 393.00 685.37 298.16 739.92
  Q 274.36 753.61 249.63 765.57
  C 239.21 770.61 231.03 773.97 220.49 768.73
  Q 207.47 762.26 193.54 749.96
  Q 176.37 734.80 160.29 718.46
  Q 120.05 677.59 82.97 634.04
  A 0.62 0.62 0.0 0 1 83.12 633.11
  Q 288.28 509.15 498.53 394.03
  Q 499.11 393.71 498.45 393.65
  C 378.72 381.19 258.82 364.28 141.31 337.88
  Q 102.74 329.22 65.06 317.25
  Q 52.48 313.25 40.33 308.13
  Q 29.39 303.52 24.95 299.58
  C 6.11 282.85 1.15 243.78 0.00 219.91
  L 0.00 192.45
  C 1.65 158.05 9.80 110.60 38.59 88.03
  Q 38.98 87.73 39.44 87.85
  Q 114.53 107.17 202.01 125.98
  Q 411.22 170.94 621.49 196.60
  Q 703.75 206.64 790.62 213.25
  Q 791.12 213.28 791.10 212.79
  Q 790.68 202.57 793.13 192.66
  Q 793.25 192.15 793.13 191.64
  C 791.53 185.12 795.72 184.82 800.16 182.90
  Q 883.30 147.00 966.49 111.20
  Q 968.12 110.50 969.18 110.10
  Q 969.72 109.89 970.23 110.16
  L 1013.22 132.46
  A 0.70 0.69 35.8 0 0 1014.04 132.33
  C 1027.13 118.98 1051.25 100.70 1070.92 105.86
  Q 1075.73 107.12 1077.69 107.47
  Q 1083.60 108.55 1085.96 109.47
  Q 1107.42 117.87 1129.60 130.39
  Q 1172.63 154.69 1216.71 185.77
  Q 1232.82 197.13 1244.31 206.80
  Q 1244.68 207.11 1245.16 207.05
  C 1421.60 183.54 1595.27 137.18 1761.18 72.95
  Q 1825.21 48.16 1887.44 19.15
  Q 1906.88 10.09 1925.80 0.00
  Z
  M 1854.45 52.43
  Q 1634.78 148.13 1400.25 197.54
  Q 1329.72 212.41 1253.50 222.72
  Q 1253.00 222.79 1253.09 223.29
  Q 1255.79 238.28 1255.73 253.53
  A 0.38 0.37 14.8 0 0 1255.94 253.88
  Q 1343.46 296.89 1432.62 335.27
  C 1453.57 344.29 1474.80 352.43 1496.30 360.04
  Q 1497.84 360.59 1498.49 360.46
  C 1590.97 342.12 1682.46 316.54 1770.25 282.03
  Q 1824.99 260.50 1876.87 232.82
  Q 1895.47 222.89 1913.26 211.56
  Q 1925.86 203.54 1929.67 200.16
  C 1944.19 187.31 1948.83 158.93 1949.64 139.75
  C 1950.73 113.75 1948.37 87.93 1943.57 62.40
  Q 1939.81 42.39 1932.80 23.22
  Q 1932.10 21.31 1929.85 17.51
  Q 1929.58 17.07 1929.12 17.30
  Q 1892.27 35.95 1854.45 52.43
  Z
  M 815.85 231.95
  A 0.03 0.03 0.0 0 0 815.84 231.89
  Q 717.09 224.94 618.77 212.92
  Q 352.32 180.36 91.25 118.00
  Q 73.52 113.77 43.88 106.16
  Q 43.37 106.03 43.03 106.42
  Q 35.00 115.53 30.36 126.83
  C 17.61 157.86 14.77 194.34 17.11 226.51
  Q 18.65 247.61 25.16 267.70
  C 27.10 273.68 31.14 283.65 36.12 287.17
  C 40.89 290.54 48.48 293.77 54.90 296.10
  Q 84.70 306.91 115.50 314.52
  Q 176.51 329.60 238.41 340.55
  Q 380.56 365.67 524.57 379.47
  A 2.73 2.63 32.3 0 0 526.08 379.16
  C 621.22 327.55 717.40 277.86 815.85 231.95
  Z
  M 1029.98 141.07
  L 1058.25 155.55
  Q 1058.75 155.80 1058.76 155.25
  L 1059.66 122.73
  A 0.54 0.54 0.0 0 0 1058.95 122.20
  Q 1042.28 127.90 1029.87 140.41
  Q 1029.47 140.81 1029.98 141.07
  Z
  M 1076.78 124.31
  A 0.42 0.42 0.0 0 0 1076.24 124.70
  Q 1072.66 273.82 1065.89 423.00
  Q 1063.82 468.69 1059.39 514.26
  Q 1059.34 514.79 1059.86 514.68
  Q 1069.56 512.58 1079.02 509.54
  Q 1135.89 491.24 1189.23 464.43
  C 1197.90 460.07 1205.76 455.48 1213.63 450.40
  Q 1218.47 447.28 1222.34 442.99
  Q 1222.68 442.62 1222.75 442.12
  C 1230.40 386.42 1236.89 330.21 1238.86 274.00
  C 1239.41 258.49 1239.63 242.29 1236.76 227.00
  Q 1235.80 221.85 1234.23 220.28
  Q 1229.27 215.33 1214.41 204.60
  Q 1171.02 173.26 1124.54 146.72
  C 1109.51 138.13 1093.46 129.24 1076.78 124.31
  Z
  M 968.43 128.51
  L 826.21 189.85
  Q 825.54 190.14 826.18 190.50
  Q 939.08 253.03 1053.17 313.38
  Q 1053.83 313.72 1053.85 312.98
  L 1058.31 174.92
  Q 1058.33 174.39 1057.85 174.14
  L 969.27 128.54
  A 0.98 0.94 46.0 0 0 968.43 128.51
  Z
  M 838.78 216.54
  L 809.02 200.08
  Q 808.67 199.89 808.59 200.28
  Q 807.32 207.02 808.00 213.83
  Q 808.07 214.54 808.77 214.59
  L 838.74 216.66
  Q 839.04 216.69 838.78 216.54
  Z
  M 860.03 230.10
  C 786.28 263.28 713.53 299.15 641.83 336.54
  C 460.89 430.90 283.21 532.12 108.42 637.37
  A 0.32 0.32 0.0 0 0 108.35 637.85
  C 135.79 669.34 164.28 700.44 194.99 728.76
  C 200.15 733.53 226.07 756.72 232.42 754.59
  Q 239.67 752.15 246.51 748.71
  Q 266.15 738.87 285.23 727.97
  Q 328.48 703.29 371.11 677.57
  Q 466.75 619.88 562.20 561.88
  C 628.23 521.77 699.41 483.55 764.80 449.83
  Q 894.92 382.75 1026.32 318.46
  A 0.24 0.23 45.7 0 0 1026.32 318.04
  Q 944.50 274.56 863.19 229.95
  C 861.85 229.21 861.29 229.53 860.03 230.10
  Z
  M 1421.56 348.67
  Q 1338.02 312.58 1256.23 272.60
  Q 1255.72 272.35 1255.69 272.92
  C 1253.96 318.96 1249.85 359.03 1244.22 406.65
  A 0.73 0.72 -75.4 0 0 1244.65 407.40
  Q 1318.75 440.12 1377.24 464.79
  Q 1471.84 504.70 1639.24 574.43
  Q 1687.47 594.52 1731.41 619.60
  Q 1807.49 663.02 1875.34 720.17
  Q 1875.71 720.48 1876.11 720.20
  Q 1907.42 697.66 1936.07 671.83
  Q 1952.92 656.63 1967.34 639.11
  C 1973.78 631.28 1980.47 621.91 1982.36 611.73
  C 1983.54 605.36 1978.96 601.49 1973.86 597.40
  Q 1964.01 589.49 1953.33 582.73
  Q 1921.13 562.38 1887.25 544.97
  Q 1858.56 530.23 1829.46 516.31
  Q 1725.73 466.69 1619.08 423.68
  Q 1552.46 396.81 1496.96 378.02
  C 1471.41 369.37 1446.32 359.37 1421.56 348.67
  Z
  M 1044.59 328.09
  C 974.95 362.04 905.64 396.66 836.60 431.72
  A 0.23 0.23 0.0 0 0 836.58 432.11
  C 868.57 453.85 901.59 475.23 936.29 492.38
  C 943.03 495.71 952.53 500.36 960.10 500.34
  A 1.01 0.94 27.5 0 0 960.61 500.20
  L 1047.59 446.63
  Q 1048.08 446.33 1048.10 445.76
  L 1053.14 332.69
  Q 1053.16 332.22 1052.75 332.00
  L 1045.43 328.11
  Q 1045.01 327.89 1044.59 328.09
  Z
  M 1000.88 495.68
  C 1013.69 503.21 1027.28 509.48 1041.03 514.64
  Q 1042.21 515.09 1042.37 513.83
  Q 1045.27 490.67 1046.54 467.36
  Q 1046.57 466.80 1046.09 467.09
  L 1000.88 495.16
  Q 1000.44 495.43 1000.88 495.68
  Z"
/>
<path fill="#ffd91d" d="
  M 1854.45 52.43
  Q 1892.27 35.95 1929.12 17.30
  Q 1929.58 17.07 1929.85 17.51
  Q 1932.10 21.31 1932.80 23.22
  Q 1939.81 42.39 1943.57 62.40
  C 1948.37 87.93 1950.73 113.75 1949.64 139.75
  C 1948.83 158.93 1944.19 187.31 1929.67 200.16
  Q 1925.86 203.54 1913.26 211.56
  Q 1895.47 222.89 1876.87 232.82
  Q 1824.99 260.50 1770.25 282.03
  C 1682.46 316.54 1590.97 342.12 1498.49 360.46
  Q 1497.84 360.59 1496.30 360.04
  C 1474.80 352.43 1453.57 344.29 1432.62 335.27
  Q 1343.46 296.89 1255.94 253.88
  A 0.38 0.37 14.8 0 1 1255.73 253.53
  Q 1255.79 238.28 1253.09 223.29
  Q 1253.00 222.79 1253.50 222.72
  Q 1329.72 212.41 1400.25 197.54
  Q 1634.78 148.13 1854.45 52.43
  Z"
/>
<path fill="#ffd91d" d="
  M 815.85 231.95
  C 717.40 277.86 621.22 327.55 526.08 379.16
  A 2.73 2.63 32.3 0 1 524.57 379.47
  Q 380.56 365.67 238.41 340.55
  Q 176.51 329.60 115.50 314.52
  Q 84.70 306.91 54.90 296.10
  C 48.48 293.77 40.89 290.54 36.12 287.17
  C 31.14 283.65 27.10 273.68 25.16 267.70
  Q 18.65 247.61 17.11 226.51
  C 14.77 194.34 17.61 157.86 30.36 126.83
  Q 35.00 115.53 43.03 106.42
  Q 43.37 106.03 43.88 106.16
  Q 73.52 113.77 91.25 118.00
  Q 352.32 180.36 618.77 212.92
  Q 717.09 224.94 815.84 231.89
  A 0.03 0.03 0.0 0 1 815.85 231.95
  Z"
/>
<path fill="#ffd91d" d="
  M 1058.25 155.55
  L 1029.98 141.07
  Q 1029.47 140.81 1029.87 140.41
  Q 1042.28 127.90 1058.95 122.20
  A 0.54 0.54 0.0 0 1 1059.66 122.73
  L 1058.76 155.25
  Q 1058.75 155.80 1058.25 155.55
  Z"
/>
<path fill="#ffd91d" d="
  M 1076.78 124.31
  C 1093.46 129.24 1109.51 138.13 1124.54 146.72
  Q 1171.02 173.26 1214.41 204.60
  Q 1229.27 215.33 1234.23 220.28
  Q 1235.80 221.85 1236.76 227.00
  C 1239.63 242.29 1239.41 258.49 1238.86 274.00
  C 1236.89 330.21 1230.40 386.42 1222.75 442.12
  Q 1222.68 442.62 1222.34 442.99
  Q 1218.47 447.28 1213.63 450.40
  C 1205.76 455.48 1197.90 460.07 1189.23 464.43
  Q 1135.89 491.24 1079.02 509.54
  Q 1069.56 512.58 1059.86 514.68
  Q 1059.34 514.79 1059.39 514.26
  Q 1063.82 468.69 1065.89 423.00
  Q 1072.66 273.82 1076.24 124.70
  A 0.42 0.42 0.0 0 1 1076.78 124.31
  Z"
/>
<path fill="#ffd91d" d="
  M 826.21 189.85
  L 968.43 128.51
  A 0.98 0.94 46.0 0 1 969.27 128.54
  L 1057.85 174.14
  Q 1058.33 174.39 1058.31 174.92
  L 1053.85 312.98
  Q 1053.83 313.72 1053.17 313.38
  Q 939.08 253.03 826.18 190.50
  Q 825.54 190.14 826.21 189.85
  Z"
/>
<path fill="#ffd91d" d="
  M 809.02 200.08
  L 838.78 216.54
  Q 839.04 216.69 838.74 216.66
  L 808.77 214.59
  Q 808.07 214.54 808.00 213.83
  Q 807.32 207.02 808.59 200.28
  Q 808.67 199.89 809.02 200.08
  Z"
/>
<path fill="#ffd91d" d="
  M 641.83 336.54
  C 713.53 299.15 786.28 263.28 860.03 230.10
  C 861.29 229.53 861.85 229.21 863.19 229.95
  Q 944.50 274.56 1026.32 318.04
  A 0.24 0.23 45.7 0 1 1026.32 318.46
  Q 894.92 382.75 764.80 449.83
  C 699.41 483.55 628.23 521.77 562.20 561.88
  Q 466.75 619.88 371.11 677.57
  Q 328.48 703.29 285.23 727.97
  Q 266.15 738.87 246.51 748.71
  Q 239.67 752.15 232.42 754.59
  C 226.07 756.72 200.15 733.53 194.99 728.76
  C 164.28 700.44 135.79 669.34 108.35 637.85
  A 0.32 0.32 0.0 0 1 108.42 637.37
  C 283.21 532.12 460.89 430.90 641.83 336.54
  Z"
/>
<path fill="#ffd91d" d="
  M 1421.56 348.67
  C 1446.32 359.37 1471.41 369.37 1496.96 378.02
  Q 1552.46 396.81 1619.08 423.68
  Q 1725.73 466.69 1829.46 516.31
  Q 1858.56 530.23 1887.25 544.97
  Q 1921.13 562.38 1953.33 582.73
  Q 1964.01 589.49 1973.86 597.40
  C 1978.96 601.49 1983.54 605.36 1982.36 611.73
  C 1980.47 621.91 1973.78 631.28 1967.34 639.11
  Q 1952.92 656.63 1936.07 671.83
  Q 1907.42 697.66 1876.11 720.20
  Q 1875.71 720.48 1875.34 720.17
  Q 1807.49 663.02 1731.41 619.60
  Q 1687.47 594.52 1639.24 574.43
  Q 1471.84 504.70 1377.24 464.79
  Q 1318.75 440.12 1244.65 407.40
  A 0.73 0.72 -75.4 0 1 1244.22 406.65
  C 1249.85 359.03 1253.96 318.96 1255.69 272.92
  Q 1255.72 272.35 1256.23 272.60
  Q 1338.02 312.58 1421.56 348.67
  Z"
/>
<path fill="#ffd91d" d="
  M 836.60 431.72
  C 905.64 396.66 974.95 362.04 1044.59 328.09
  Q 1045.01 327.89 1045.43 328.11
  L 1052.75 332.00
  Q 1053.16 332.22 1053.14 332.69
  L 1048.10 445.76
  Q 1048.08 446.33 1047.59 446.63
  L 960.61 500.20
  A 1.01 0.94 27.5 0 1 960.10 500.34
  C 952.53 500.36 943.03 495.71 936.29 492.38
  C 901.59 475.23 868.57 453.85 836.58 432.11
  A 0.23 0.23 0.0 0 1 836.60 431.72
  Z"
/>
<path fill="#ffd91d" d="
  M 1041.03 514.64
  C 1027.28 509.48 1013.69 503.21 1000.88 495.68
  Q 1000.44 495.43 1000.88 495.16
  L 1046.09 467.09
  Q 1046.57 466.80 1046.54 467.36
  Q 1045.27 490.67 1042.37 513.83
  Q 1042.21 515.09 1041.03 514.64
  Z"
/>
</svg>
