<?xml version="1.0" encoding="UTF-8" standalone="no"?>
<svg
   version="1.1"
   width="478.619"
   height="184.762"
   viewBox="0 0 478.619 184.762"
   overflow="visible"
   enable-background="new 0 0 478.619 184.762"
   xml:space="preserve"
   id="svg8"
   sodipodi:docname="Judo_yellow_white_belt.svg"
   inkscape:version="1.4 (e7c3feb1, 2024-10-09)"
   xmlns:inkscape="http://www.inkscape.org/namespaces/inkscape"
   xmlns:sodipodi="http://sodipodi.sourceforge.net/DTD/sodipodi-0.dtd"
   xmlns="http://www.w3.org/2000/svg"
   xmlns:svg="http://www.w3.org/2000/svg"><defs
     id="defs8">
				
				
				
				
				
				
				
				
			</defs><sodipodi:namedview
     id="namedview8"
     pagecolor="#ffffff"
     bordercolor="#000000"
     borderopacity="0.25"
     inkscape:showpageshadow="2"
     inkscape:pageopacity="0.0"
     inkscape:pagecheckerboard="0"
     inkscape:deskcolor="#d1d1d1"
     inkscape:zoom="1.3810568"
     inkscape:cx="131.78314"
     inkscape:cy="289.99532"
     inkscape:window-width="2320"
     inkscape:window-height="1303"
     inkscape:window-x="0"
     inkscape:window-y="25"
     inkscape:window-maximized="0"
     inkscape:current-layer="svg8"><inkscape:page
       x="0"
       y="0"
       width="478.61899"
       height="184.76199"
       id="page1"
       margin="0"
       bleed="0" /></sodipodi:namedview><path
     fill="#FFD91D"
     stroke="#1a1a1a"
     stroke-width="4"
     d="m 190.09016,46.890664 c 0,0 -1.3577,4.588535 0.19328,6.833692 1.55194,2.245159 22.88306,1.659546 22.88306,1.659546 l -10.37285,-9.469878 z"
     id="path1"
     style="fill:#ffffff;fill-opacity:1" /><path
     fill="#FFD91D"
     stroke="#1a1a1a"
     stroke-width="4"
     d="m 9.831,23.198 c 0,0 119.181,32.087 233.779,32.087 114.598,0 214.679,-51.187 218.5,-53.479 3.819,-2.292 12.987,38.963 0.765,48.131 C 450.65,59.105 381.892,98.833 246.667,98.833 111.441,98.833 13.652,77.441 6.775,69.801 -0.101,62.161 -0.101,31.602 9.831,23.198 Z"
     id="path2"
     style="fill:#ffffff;fill-opacity:1" /><path
     fill="#FFD91D"
     stroke="#1a1a1a"
     stroke-width="4"
     d="m 250.97095,125.354 c 0,0 -21.3883,-6.00267 -27.28851,-21.00933 -5.89925,-15.00567 56.78862,-29.261993 56.78862,-29.261993 l -5.90021,30.763653 z"
     id="path3"
     style="fill:#ffffff;fill-opacity:1" /><path
     fill="#FFD91D"
     stroke="#1a1a1a"
     stroke-width="4"
     d="m 195.479,102.652 c 0,0 30.56,21.392 35.143,19.1 4.584,-2.292 58.827,-36.671 58.827,-36.671 l -45.839,-33.616 -50.423,38.2 z"
     id="path4"
     style="fill:#ffffff;fill-opacity:1" /><path
     fill="#FFD91D"
     stroke="#1a1a1a"
     stroke-width="4"
     d="m 22.818,152.312 c 0,0 125.293,-76.398 200.928,-106.958 75.635,-30.56 30.56,29.031 30.56,29.031 0,0 -78.69,38.199 -110.778,57.299 -32.088,19.1 -81.746,50.424 -87.858,51.188 -6.112,0.763 -32.852,-30.56 -32.852,-30.56 z"
     id="path5"
     style="fill:#ffffff;fill-opacity:1" /><path
     fill="#FFD91D"
     stroke="#1a1a1a"
     stroke-width="4"
     d="m 255.967,27.303 c 0,0 -5.29,-1.851 -14.146,8.46 -8.857,10.312 15.07,8.197 15.07,8.197 z"
     id="path6"
     style="fill:#ffffff;fill-opacity:1" /><path
     fill="#FFD91D"
     stroke="#1a1a1a"
     stroke-width="4"
     d="m 232.15,28.546 c 0,0 94.734,49.659 127.586,60.355 32.851,10.696 113.832,46.603 116.889,55.771 3.057,9.168 -27.503,30.559 -27.503,30.559 0,0 -23.685,-21.391 -54.243,-34.379 C 364.319,127.865 311.605,106.473 282.573,92.721 253.542,78.97 193.186,45.354 193.186,45.354 Z"
     id="path7"
     style="fill:#ffffff;fill-opacity:1" /><path
     fill="#FFD91D"
     stroke="#1a1a1a"
     stroke-width="4"
     d="m 255.834,27.782 c 0,0 -2.292,92.442 -4.584,97.026 -2.293,4.584 42.783,-12.987 43.546,-18.335 0.765,-5.349 6.877,-50.423 2.293,-55.007 -4.584,-4.584 -36.672,-25.976 -41.255,-23.684 z"
     id="path8"
     style="fill:#ffffff;fill-opacity:1" /><path
     style="fill:#fffa00;stroke:#1a1a1a;stroke-width:2;fill-opacity:1;stroke-opacity:1"
     d="m 317.87252,70.960152 c 0,0 53.13229,-15.713403 79.14572,-25.190319 23.65337,-8.617121 69.8344,-28.753878 69.8344,-28.753878 l 1.44816,15.567788 c 0,0 -42.08791,18.193067 -63.66669,25.88722 -22.19999,7.915651 -67.57339,20.816147 -67.57339,20.816147 z"
     id="path9"
     sodipodi:nodetypes="csccscc" /><path
     style="fill:#fffa00;stroke:#1a1a1a;stroke-width:2;fill-opacity:1;stroke-opacity:1"
     d="m 298.8225,74.73164 c 0,0 56.55914,22.818709 82.04205,33.64144 35.88242,15.23947 89.92771,46.91281 89.92771,46.91281 l -10.3182,9.95615 c 0,0 -66.16368,-37.74236 -85.93225,-45.79701 -21.82675,-8.89326 -76.62443,-30.050704 -76.62443,-30.050704 z"
     id="path9-0"
     sodipodi:nodetypes="csccscc" /><path
     style="fill:#fffa00;stroke:#1a1a1a;stroke-width:2;fill-opacity:1;stroke-opacity:1"
     d="m 229.32691,66.675579 c 0,0 -54.24473,32.393127 -78.34076,44.905781 -34.59783,17.96607 -107.011646,61.76305 -107.011646,61.76305 L 33.679479,162.97544 c 0,0 94.733191,-54.2866 113.901351,-63.681017 20.9191,-10.252568 69.41587,-39.493551 69.41587,-39.493551 z"
     id="path9-0-7"
     sodipodi:nodetypes="csccscc" /><path
     style="fill:#fffa00;stroke:#1a1a1a;stroke-width:2;fill-opacity:1;stroke-opacity:1"
     d="m 3.7744929,39.759179 c 0,0 46.3445181,10.847995 73.3379801,17.001306 39.338447,8.967419 90.183707,13.248539 90.183707,13.248539 l -22.7343,11.492162 c 0,0 -63.34428,-9.481324 -84.01223,-14.820761 C 36.034878,60.347186 3.253376,54.677871 3.253376,54.677871 Z"
     id="path9-0-3"
     sodipodi:nodetypes="csccscc" /><path
     style="fill:#fffa00;stroke:#1a1a1a;stroke-width:2;fill-opacity:1;stroke-opacity:1"
     d="m 283.62487,43.01946 c 0,0 1.91606,3.79836 2.61172,31.475538 0.67678,26.925902 -7.54807,41.064632 -7.54807,41.064632 l -13.16867,5.67242 c 0,0 7.71831,-24.276194 7.99601,-40.420361 0.40536,-23.565496 -0.62079,-44.305487 -0.62079,-44.305487 z"
     id="path9-0-8"
     sodipodi:nodetypes="csccscc" /><path
     style="fill:#fffa00;stroke:#1a1a1a;stroke-width:2;fill-opacity:1;stroke-opacity:1"
     d="m 221.36018,33.660334 c 14.19704,11.139219 17.87617,10.359848 32.16178,20.065907 l -0.22902,13.759166 c -9.27423,-8.324134 -34.58381,-19.238779 -45.2681,-27.961609 z"
     id="path9-0-8-3"
     sodipodi:nodetypes="ccccc" /><path
     style="fill:#fffa00;stroke:#1a1a1a;stroke-width:2;fill-opacity:1;stroke-opacity:1"
     d="m 252.69216,99.362826 c -15.966,8.409804 -22.73084,11.724384 -33.44237,16.998904 l -11.56075,-6.37139 c 11.3859,-5.06594 32.77141,-19.004478 45.09712,-25.194692 z"
     id="path9-0-8-3-2"
     sodipodi:nodetypes="ccccc" /></svg>
