<?xml version="1.0" encoding="UTF-8" standalone="no"?>
<svg height="184.76" viewBox="0 0 478.619 184.762" width="478.62" xmlns:xlink="http://www.w3.org/1999/xlink" xmlns="http://www.w3.org/2000/svg" >

<linearGradient id="e" y2="50.32" gradientUnits="userSpaceOnUse" x2="469.01" y1="50.32" x1="2"><stop stop-color="#FFD91D" offset="1"/><stop stop-color="#FFD91F" offset="1"/><stop stop-color="#FFDA26" offset="1"/><stop stop-color="#FFDC31" offset="1"/><stop stop-color="#FFDF42" offset="1"/><stop stop-color="#FFE358" offset="1"/><stop stop-color="#FFE874" offset="1"/><stop stop-color="#FFED94" offset="1"/><stop stop-color="#FFF3BA" offset="1"/><stop stop-color="#FFFAE3" offset="1"/><stop stop-color="#fff" offset="1"/></linearGradient>
<linearGradient id="c" y2="85.298" gradientUnits="userSpaceOnUse" x2="138.15" y1="127.41" x1="162.46"><stop stop-color="#fff" offset=".5225"/><stop stop-color="#FFFAE3" offset=".5226"/><stop stop-color="#FFF3BA" offset=".5229"/><stop stop-color="#FFED94" offset=".5232"/><stop stop-color="#FFE874" offset=".5235"/><stop stop-color="#FFE358" offset=".5238"/><stop stop-color="#FFDF42" offset=".5242"/><stop stop-color="#FFDC31" offset=".5246"/><stop stop-color="#FFDA26" offset=".5252"/><stop stop-color="#FFD91F" offset=".5259"/><stop stop-color="#FFD91D" offset=".5281"/></linearGradient>
<linearGradient id="b" y2="77.487" gradientUnits="userSpaceOnUse" x2="343.85" y1="117.45" x1="325.21"><stop stop-color="#fff" offset=".5225"/><stop stop-color="#FFFAE3" offset=".5226"/><stop stop-color="#FFF3BA" offset=".5229"/><stop stop-color="#FFED94" offset=".5232"/><stop stop-color="#FFE874" offset=".5235"/><stop stop-color="#FFE358" offset=".5238"/><stop stop-color="#FFDF42" offset=".5242"/><stop stop-color="#FFDC31" offset=".5246"/><stop stop-color="#FFDA26" offset=".5252"/><stop stop-color="#FFD91F" offset=".5259"/><stop stop-color="#FFD91D" offset=".5281"/></linearGradient>
<linearGradient id="a" y2="78.964" gradientUnits="userSpaceOnUse" x2="297.93" y1="76.624" x1="253.27"><stop stop-color="#fff" offset=".4944"/><stop stop-color="#FFFAE3" offset=".497"/><stop stop-color="#FFEF9D" offset=".504"/><stop stop-color="#FFE566" offset=".5102"/><stop stop-color="#FFDF3E" offset=".5156"/><stop stop-color="#FFDB26" offset=".5199"/><stop stop-color="#FFD91D" offset=".5225"/></linearGradient>
<linearGradient id="d" y2="111.21" gradientUnits="userSpaceOnUse" x2="251.3" y1="60.668" x1="225.55"><stop stop-color="#fff" offset=".6854"/><stop stop-color="#FFFAE3" offset=".6859"/><stop stop-color="#FFEF9D" offset=".6873"/><stop stop-color="#FFE566" offset=".6886"/><stop stop-color="#FFDF3E" offset=".6896"/><stop stop-color="#FFDB26" offset=".6905"/><stop stop-color="#FFD91D" offset=".691"/></linearGradient>
<g stroke-linejoin="round">
<path d="m192.04 46.054s-1.475 4.952 0.21 7.375c1.686 2.423 24.86 1.791 24.86 1.791l-11.27-10.22-13.8 1.054z" stroke="#1A1A1A" stroke-width="4" fill="#FFD91D"/>
<path d="m9.831 23.198s119.18 32.087 233.78 32.087 214.68-51.187 218.5-53.479c3.819-2.292 12.987 38.963 0.765 48.131-12.225 9.168-80.983 48.896-216.21 48.896s-233.02-21.392-239.89-29.032c-6.881-7.64-6.881-38.199 3.051-46.603z" fill="url(#e)"/>
<path d="m467.2 25.006c0.803 10.384-1.26 21.396-6.852 25.59-12.225 9.168-78.237 45.757-213.46 45.757-135.23 0-231.23-19.029-238.11-26.669-3.438-3.82-5.156-13.37-4.774-23.015 0 0 133.12 28.827 245.12 27.827 110.01-0.982 217.52-49.24 218.07-49.49z" fill="#fff"/>
<path d="m9.831 23.198s119.18 32.087 233.78 32.087 214.68-51.187 218.5-53.479c3.819-2.292 12.987 38.963 0.765 48.131-12.225 9.168-80.983 48.896-216.21 48.896s-233.02-21.392-239.89-29.032c-6.881-7.64-6.881-38.199 3.051-46.603z" stroke="#1A1A1A" stroke-width="4" fill="none"/>
<path d="m252.01 126.34s-22.156-6.112-28.268-21.392c-6.111-15.279 58.827-29.795 58.827-29.795l-6.112 31.324-24.45 19.86z" stroke="#1A1A1A" stroke-width="4" fill="#FFD91D"/>
<path d="m195.48 102.65s30.56 21.392 35.143 19.1c4.584-2.292 58.827-36.671 58.827-36.671l-45.84-33.614-50.423 38.2 2.29 12.985z" stroke="#1A1A1A" stroke-width="4" fill="url(#d)"/>
<path d="m22.818 152.31s125.29-76.398 200.93-106.96c75.635-30.56 30.56 29.031 30.56 29.031s-78.69 38.199-110.78 57.299-81.746 50.424-87.858 51.188c-6.114 0.77-32.854-30.56-32.854-30.56z" stroke="#1A1A1A" stroke-width="4" fill="url(#c)"/>
<path d="m255.97 27.303s-5.29-1.851-14.146 8.46c-8.857 10.312 15.07 8.197 15.07 8.197l-0.92-16.657z" stroke="#1A1A1A" stroke-width="4" fill="#FFD91D"/>
<path d="m232.15 28.546s94.734 49.659 127.59 60.355c32.851 10.696 113.83 46.603 116.89 55.771s-27.503 30.559-27.503 30.559-23.685-21.391-54.243-34.379c-30.56-12.987-83.274-34.379-112.31-48.131-29.031-13.751-89.387-47.367-89.387-47.367l38.96-16.806z" stroke="#1A1A1A" stroke-width="4" fill="url(#b)"/>
<path d="m255.83 27.782s-2.292 92.442-4.584 97.026c-2.293 4.584 42.783-12.987 43.546-18.335 0.765-5.349 6.877-50.423 2.293-55.007s-36.67-25.983-41.26-23.691z" stroke="#1A1A1A" stroke-width="4" fill="url(#a)"/>
</g></svg>
